<svg xmlns="http://www.w3.org/2000/svg" width="15.765" height="17.9" xmlns:v="https://vecta.io/nano"><path d="M14.189 2.065h-.525v-.488C13.642.722 12.943.04 12.088.04s-1.555.682-1.576 1.537v.488H5.255v-.488C5.233.722 4.534.04 3.678.04S2.124.722 2.102 1.577v.488h-.525A1.58 1.58 0 0 0 0 3.641v12.682A1.58 1.58 0 0 0 1.577 17.9h12.612a1.58 1.58 0 0 0 1.581-1.577V3.641a1.58 1.58 0 0 0-1.581-1.576zm-2.628-.488c0-.29.235-.526.526-.526s.526.235.526.526v2.1c0 .29-.235.526-.526.526s-.526-.235-.526-.526zm-8.408 0c0-.29.235-.526.526-.526s.526.235.526.526v2.1c0 .29-.235.526-.526.526s-.526-.235-.526-.526zm11.561 14.746c-.001.29-.235.524-.525.525H1.577c-.29-.001-.524-.235-.525-.525v-9h13.662zm0-10.055H1.051V3.641c.001-.29.235-.524.525-.525h.525v.563c.022.855.721 1.537 1.576 1.537s1.555-.682 1.576-1.537v-.563h5.256v.563c-.014.573.283 1.108.777 1.399s1.106.291 1.6 0 .791-.826.777-1.399v-.563h.525c.29.001.524.235.525.525v2.628z" fill="#b3b3b3"/></svg>