<svg xmlns="http://www.w3.org/2000/svg" xmlns:xlink="http://www.w3.org/1999/xlink" width="32.326" height="32.328" xmlns:v="https://vecta.io/nano"><g fill="#424242"><path d="M31.772 11.627L20.699.554a1.9 1.9 0 0 0-2.679 0L5.693 12.88h-3.8A1.9 1.9 0 0 0 0 14.775v15.66a1.9 1.9 0 0 0 1.894 1.894h23.49a1.9 1.9 0 0 0 1.893-1.895V18.8l4.494-4.494a1.9 1.9 0 0 0 0-2.679zM18.913 1.447a.63.63 0 0 1 .893 0l1.408 1.408L11.188 12.88H7.477zm7.1 28.987a.63.63 0 0 1-.631.631H1.894a.63.63 0 0 1-.631-.631V14.775a.63.63 0 0 1 .631-.631h23.49a.63.63 0 0 1 .631.631zm4.864-17.021l-3.6 3.6v-2.238a1.9 1.9 0 0 0-1.894-1.894h-7.765l6.81-6.811 6.45 6.45a.63.63 0 0 1 0 .893z"/><circle cx="5.57" cy="18.816" r="2.273"/><path d="M3.662 25.383h2.669a.632.632 0 1 0 0-1.263H3.662a.631.631 0 1 0 0 1.263zm8.431 2.273H3.662a.631.631 0 1 0 0 1.263h8.431a.631.631 0 1 0 0-1.263z"/><use xlink:href="#B"/><path d="M12.093 24.12H9.426a.63.63 0 1 0 0 1.263h2.669a.63.63 0 1 0 0-1.263z"/><use xlink:href="#B" x="-5.761" y="-3.536"/><use xlink:href="#B" y="-3.536"/><path d="M18.059 17.806v2.021c0 .698.565 1.263 1.263 1.263h.884v-4.546h-.884c-.697 0-1.262.565-1.263 1.262zm5.557 2.02v-2.021c0-.698-.565-1.263-1.263-1.263h-.884v4.546h.884c.697 0 1.262-.565 1.263-1.262z"/></g><defs ><path id="B" d="M23.616 27.656h-2.669a.63.63 0 1 0 0 1.263h2.669a.63.63 0 1 0 0-1.263z"/></defs></svg>