<?xml version="1.0" encoding="UTF-8"?>
<svg enable-background="new 0 0 147.3 118.1" version="1.1" viewBox="0 0 147.3 118.1" xml:space="preserve" xmlns="http://www.w3.org/2000/svg">
<g transform="translate(-167.49 -205.67)">
	<g transform="translate(203.03 205.67)">
		<g transform="translate(37.187 2.119)">
			<g transform="translate(1.724)">
				<g transform="translate(13.962 15.524)">
					<path d="m16.8 0c-1.4 2.1-4.4 4.1-7.2 6.2-5.9 4.3-9.2 8-9.6 17.4 12-1.2 22.4-11.1 16.8-23.6z" fill="#007932"/>
				</g>
				<path d="m1.3 46.8s-6.6-21.4 10.3-29.4c-0.1 0 8.3 16.3-10.3 29.4z" fill="#007932"/>
				<path d="m15.2 25.8s-5-14.6 8.5-19.9c0 0 5.9 13.1-8.5 19.9z" fill="#6DA819"/>
				<path d="m12.2 0c-2.2 1.3-3.9 3.2-5 5.5-2 3.9-1.7 8.5 0.5 12.2 2.2-1.3 3.9-3.2 5-5.5 2-3.9 1.7-8.5-0.5-12.2z" fill="#6DA819"/>
			</g>
			<path d="m37.7 26.2s0.6 8.4-14.2 12.8c-11.3 3.3-22 7.6-23.2 20.8l-0.3 9.8h6c-0.4-0.6-0.7-1.2-0.8-1.9v-0.1s-2.6-8.7 7.4-10.8c10.5-2.2 32.2-5.9 25.1-30.6z" fill="#12572E"/>
		</g>
		<g transform="translate(32.737)">
			<path d="m5.4 0c-7.2 8.3-7.2 20.7 0 29 7.2-8.3 7.2-20.7 0-29z" fill="#6DA819"/>
		</g>
		<g transform="translate(0 2.119)">
			<g transform="translate(4.998)">
				<g transform="translate(0 15.524)">
					<path d="M1.6,0C3,2.1,6,4.1,8.8,6.2c5.9,4.4,9.2,8.1,9.6,17.4C6.3,22.4-4,12.5,1.6,0z" fill="#007932"/>
				</g>
				<path d="m31.1 46.8s6.6-21.4-10.3-29.4c0 0-8.3 16.3 10.3 29.4z" fill="#007932"/>
				<path d="m17.2 25.8s5-14.6-8.5-19.9c0 0-6 13.1 8.5 19.9z" fill="#6DA819"/>
				<path d="m20.2 0c2.2 1.3 3.9 3.2 5 5.5 1.9 3.9 1.7 8.5-0.6 12.2-2.2-1.3-3.9-3.2-5-5.5-1.9-3.9-1.7-8.5 0.6-12.2z" fill="#6DA819"/>
			</g>
			<path d="m1.4 26.2s-0.6 8.4 14.2 12.8c11.3 3.3 22 7.6 23.2 20.8l0.2 9.8h-6c0.4-0.6 0.7-1.2 0.8-1.9v-0.1s2.6-8.7-7.4-10.8c-10.4-2.2-32.1-5.9-25-30.6z" fill="#12572E"/>
		</g>
	</g>
	<g transform="translate(192.16 314.69)" fill="#506D72">
		<path d="m0 4.6c0-2.5 1.9-4.6 4.4-4.6h0.2c1.5-0.1 2.9 0.6 3.7 1.8l-1.8 1.4c-0.4-0.6-1.1-1-1.9-1-1.2 0-2.1 1.1-2.1 2.3v0.1c-0.1 1.2 0.8 2.2 2 2.3h0.1c0.8 0 1.5-0.4 2-1.1l1.8 1.3c-1.5 2.1-4.3 2.6-6.4 1.2-1.2-0.9-2-2.2-2-3.7z"/>
		<path d="M12.4,0.2h2.4v6.6h4.2v2.1h-6.7V0.2z"/>
		<path d="M23.2,0.2h2.4v8.7h-2.4V0.2z"/>
		<path d="M30.2,0.2h2.3l3.6,4.6V0.2h2.4v8.7h-2.1l-3.7-4.8v4.8h-2.4L30.2,0.2z"/>
		<path d="M43.1,0.2h2.4v8.7h-2.4V0.2z"/>
		<path d="m49.8 4.6c0-2.5 1.9-4.5 4.4-4.6h0.2c1.5-0.1 2.9 0.6 3.7 1.8l-1.8 1.4c-0.4-0.6-1.1-1-1.9-1-1.2 0-2.1 1.1-2.1 2.3v0.1c-0.1 1.2 0.8 2.2 2 2.3h0.1c0.8 0 1.5-0.4 2-1.1l1.8 1.3c-1.4 2.1-4.3 2.6-6.4 1.2-1.2-0.9-2-2.2-2-3.7z"/>
		<path d="M68.7,0.2h2.4v6.6h4.2v2.1h-6.7V0.2z"/>
		<path d="M79.4,0.2h2.4v6.6H86v2.1h-6.7V0.2z"/>
		<path d="m89.3 4.6c0-2.5 1.9-4.5 4.4-4.6h0.2c1.5-0.1 2.9 0.6 3.7 1.8l-1.8 1.4c-0.4-0.6-1.1-1-1.9-1-1.2 0-2.1 1.1-2.1 2.3v0.1c-0.1 1.2 0.8 2.2 2 2.3h0.1c0.8 0 1.5-0.4 2-1.1l1.8 1.3c-1.4 2.1-4.3 2.6-6.4 1.2-1.2-0.9-2-2.2-2-3.7z"/>
	</g>
	<g transform="translate(167.49 285.6)" fill="#fff">
		<path d="m13.8 18.5h-7.6l-0.5 1.5c-0.4 1.2-1.5 2-2.8 2-1.6 0-2.9-1.3-2.9-2.9 0-0.4 0.1-0.7 0.2-1.1l5.8-14.8c0.6-1.6 2.2-2.7 4-2.7 1.7 0 3.3 1.1 4 2.7l5.9 14.8c0.6 1.5-0.1 3.2-1.6 3.8-0.3 0.1-0.7 0.2-1.1 0.2h-0.1c-1.2 0-2.4-0.8-2.8-2l-0.5-1.5zm-3.8-11.3-2.4 6.7h4.7l-2.3-6.7z"/>
		<path d="m26.6 15.1c1 0 1.9 0.5 2.4 1.3 0.5 0.7 1.3 1.1 2.2 1 1.2 0 2.4-0.7 2.4-1.8 0-1.3-1.7-1.7-3.7-2.2-3.1-0.8-7.1-1.7-7.1-6.6 0-4.4 3.1-6.8 8.2-6.8 2.2-0.1 4.5 0.6 6.2 2 1.1 1.1 1.2 3 0 4.1-0.5 0.6-1.3 0.9-2.1 0.9-0.9 0-1.8-0.5-2.4-1.2-0.4-0.5-1.1-0.8-1.8-0.8-1.1 0-2.1 0.5-2.1 1.5 0 1.2 1.6 1.6 3.6 2.1 3.2 0.8 7.3 1.9 7.3 6.8 0 4.7-3.6 7.1-8.6 7.1-3 0-5.4-0.9-6.9-2.5-1.1-1.2-1-3.1 0.3-4.2 0.6-0.5 1.3-0.7 2.1-0.7z"/>
		<path d="m62.2 3.5v15.5c0 1.6-1.3 3-3 3-1.6 0-3-1.3-3-3v-5.3h-6.4v5.3c0 1.6-1.3 3-3 3-1.6 0-3-1.3-3-3v-15.5c0-1.6 1.3-3 3-3 1.6 0 3 1.3 3 3v4.8h6.4v-4.8c0-1.6 1.3-3 3-3s3 1.3 3 3z"/>
		<path d="m87.6 5.8h-3.2v13.2c0 1.6-1.3 3-3 3-1.6 0-3-1.3-3-3v-13.2h-3.2c-1.5 0-2.7-1.2-2.7-2.7s1.2-2.7 2.7-2.7h12.3c1.5 0 2.7 1.2 2.7 2.7s-1.1 2.7-2.6 2.7z"/>
		<path d="m101.8 15.4h-2.1v3.6c0 1.6-1.3 3-3 3-1.6 0-3-1.3-3-3v-15.5c0-1.7 1.4-3 3-3h6.3c4.6 0 8 3.1 8 7.6 0 2.5-1.3 4.8-3.4 6.1l1.9 3.5c0.8 1.4 0.2 3.2-1.2 3.9-0.4 0.2-0.9 0.4-1.4 0.4-1.1 0-2.1-0.6-2.6-1.5l-2.5-5.1zm-2.1-5h2.7c1.3 0.1 2.5-0.8 2.6-2.1s-0.8-2.5-2.1-2.6h-0.5-2.7v4.7z"/>
		<path d="m129.1 19.3v0.3c0 1.3-1.1 2.4-2.4 2.4h-9.6c-1.1 0-2-0.9-2-2v-17.5c0-1.1 0.9-2 2-2h9.4c1.3 0 2.4 1.1 2.4 2.4v0.3c0 1.3-1.1 2.4-2.4 2.4h-5.5v3.2h4.6c1.3 0 2.4 1.1 2.4 2.4s-1.1 2.4-2.4 2.4h-4.6v3.2h5.7c1.3 0.1 2.4 1.1 2.4 2.5z"/>
		<path d="m147.3 19.3v0.3c0 1.3-1.1 2.4-2.4 2.4h-9.6c-1.1 0-2-0.9-2-2v-17.5c0-1.1 0.9-2 2-2h9.4c1.3 0 2.4 1.1 2.4 2.4v0.3c0 1.3-1.1 2.4-2.4 2.4h-5.4v3.2h4.6c1.3 0 2.4 1.1 2.4 2.4s-1.1 2.4-2.4 2.4h-4.6v3.2h5.7c1.2 0.1 2.3 1.1 2.3 2.5z"/>
	</g>
</g>
</svg>
