<svg xmlns="http://www.w3.org/2000/svg" width="68.896" height="17.997" fill="#424242" xmlns:v="https://vecta.io/nano"><path d="M27.561 1.736h.483l6.831.158c2.491.019 4.615 1.811 5.054 4.263a8.59 8.59 0 0 1-.261 4.869c-.863 2.261-2.969 3.808-5.384 3.956l-6.723.292zm3.991 10.2a3.84 3.84 0 0 0 3.21-.853 3.66 3.66 0 0 0 .959-3.779A2.97 2.97 0 0 0 34.06 4.94a22.28 22.28 0 0 0-2.508-.305zm-19.45-3.303a19.33 19.33 0 0 1 .351-2.5c.989-3.072 4.012-5.014 7.217-4.637 1.354.146 2.638.675 3.7 1.527 1.311 1.129 2.088 2.757 2.142 4.486a7.59 7.59 0 0 1-.414 3.574 6.35 6.35 0 0 1-5.359 4.124c-1.514.23-3.061-.057-4.392-.814-2.123-1.112-3.394-3.368-3.245-5.76zm4.313-.268l.259 1.738a1.98 1.98 0 0 0 1.78 1.668c.953.173 1.908-.299 2.347-1.163.716-1.415.705-3.088-.029-4.494-.4-.8-1.265-1.256-2.151-1.133a1.92 1.92 0 0 0-1.878 1.547c-.156.615-.227 1.252-.328 1.837zm-5.782 2.903l-.013 3.3c0 .1-.17.246-.29.286-1.256.399-2.582.531-3.892.388a10.83 10.83 0 0 1-2.61-.461 5.34 5.34 0 0 1-3.333-3.42 7.82 7.82 0 0 1-.072-5.272 6.6 6.6 0 0 1 5.6-4.535c1.534-.13 3.079-.047 4.59.246v3.7l-.45-.144c-1.172-.432-2.446-.502-3.658-.2-1.132.25-1.979 1.195-2.105 2.348a8.1 8.1 0 0 0 .04 2.04 2.99 2.99 0 0 0 2.394 2.161c1.07.182 2.168.087 3.19-.278l.455-.153c.051-.007.103-.009.154-.006zm37.749-4.389l-4.263-.174-1-.092c-.258-.035-.474-.123-.487-.453-.012-.305.083-.53.39-.59a7.58 7.58 0 0 1 1.208-.167l4.074-.092a.9.9 0 0 0 1-.989c0-.083-.161-.235-.257-.244l-1.877-.12-6.045-.141c-.16 0-.318-.038-.477-.051-.276-.023-.477-.179-.423-.44a.72.72 0 0 1 .381-.5 7.3 7.3 0 0 1 1.6-.22l6.968-.038c.867 0 1.157-.337 1.073-1.3l-1.029-.067-9.641-.105c-.305 0-.609-.057-.914-.082s-.4-.187-.4-.466c0-.264.1-.417.375-.434l2.009-.119q7.582.01 15.163.046h2.805a.56.56 0 0 1 .556.309q2.136 3.484 4.3 6.947a1.12 1.12 0 0 0 .588.439l4.166 1.148a.66.66 0 0 1 .586.684l.085 3.844a9.51 9.51 0 0 1-.139 1.616c-.027.163-.246.414-.385.42h-2.7c-.167-.009-.4-.286-.46-.483-.146-.454-.19-.939-.307-1.4a3.83 3.83 0 0 0-3.814-2.933 3.94 3.94 0 0 0-3.762 3.066c-.07.355-.059.724-.095 1.086a.68.68 0 0 1-.23.506.69.69 0 0 1-.53.168q-4.4.054-8.8.106c-.452 0-.907 0-1.357-.037-.6-.048-.812-.338-.616-.914l2.336-6.758.345-.976zm-1.142 7.309h7.628c.938 0 .949 0 1.186-.918a5.2 5.2 0 0 1 1.703-2.828c1.434-1.2 3.4-1.541 5.155-.896a5.22 5.22 0 0 1 3.345 4.024c.129.526.327.636.766.619h.488v-.471l.009-3.193a.47.47 0 0 0-.429-.562l-3.9-.973a.94.94 0 0 1-.636-.462l-4.237-6.934c-.11-.221-.341-.355-.587-.34l-5.255-.124a.54.54 0 0 0-.633.414l-3.338 9.132-1.265 3.512zm11.078.862a2.97 2.97 0 0 1 2.859-3.005c.808-.003 1.581.329 2.136.916s.843 1.378.795 2.184c-.051 1.549-1.293 2.793-2.841 2.847a2.95 2.95 0 0 1-2.949-2.942zm2.955 1.54a1.79 1.79 0 0 0 1.592-1.636 1.99 1.99 0 0 0-1.588-1.522 1.55 1.55 0 0 0-1.615 1.583 1.64 1.64 0 0 0 1.607 1.576zm-5.755-8.12h-3.54c-.395 0-.556-.227-.481-.6l.468-2.169.775-2.723c.074-.27.178-.4.5-.41l3.322-.157a.9.9 0 0 1 .934.491l.927 1.726 1.25 2.97c.225.588.061.842-.565.861l-3.584.01zm-2.541-1.336h5.054l-.816-1.773c-.748-1.617-.748-1.618-2.494-1.462a1.1 1.1 0 0 0-.428.06c-.19.108-.442.242-.5.421l-.816 2.754z"/></svg>