<svg xmlns="http://www.w3.org/2000/svg" width="15.29" height="17.792" fill="#b3b3b3" xmlns:v="https://vecta.io/nano"><path d="M15.134 3.719L11.5.149A.52.52 0 0 0 11.134 0h-9.19A1.95 1.95 0 0 0 0 1.945v13.9c.001 1.074.871 1.944 1.945 1.945h11.4c1.074-.001 1.944-.871 1.945-1.945V4.091a.52.52 0 0 0-.156-.372zm-3.479-1.955l1.839 1.806h-1.673c-.044 0-.086-.017-.117-.049s-.049-.073-.049-.117zm1.69 14.985H1.944a.9.9 0 0 1-.9-.9V1.945a.9.9 0 0 1 .9-.9h8.668V3.4a1.21 1.21 0 0 0 1.208 1.208h2.426v11.239a.9.9 0 0 1-.9.9zM11.263 8.27H3.915a.521.521 0 1 0 0 1.042h7.348a.521.521 0 1 0 0-1.042zm-7.348 3.127h5.988a.52.52 0 1 0 0-1.042H3.915a.521.521 0 1 0 0 1.042zm6.714 1.043H3.915a.521.521 0 1 0 0 1.042h6.714a.521.521 0 1 0 0-1.042zm0 0"/></svg>