<svg xmlns="http://www.w3.org/2000/svg" viewBox="0 0 96.1 25" xmlns:v="https://vecta.io/nano"><path d="M24.323 6.147c-.8.8-1.6 1.6-2.5 2.1-2.1 1.6-3.3 2.9-3.4 6.1 4.2-.4 7.8-3.8 5.9-8.2zM13.958 17.038s-2.3-7.4 3.6-10.3c0 .1 2.9 5.7-3.6 10.3z" fill="#007932"/><path d="M18.858 9.738s-1.8-5.1 3-6.9c1.1 2.6-.1 5.7-2.7 6.8-.1 0-.2 0-.3.1zm-1.1-9c-.7.5-1.3 1.1-1.7 1.9-.7 1.4-.6 3 .2 4.2.8-.4 1.4-1.1 1.8-1.9.6-1.3.5-2.9-.3-4.2z" fill="#6da819"/><path d="M26.057 9.838s.2 2.9-5 4.4c-3.9 1.1-7.7 2.6-8.1 7.3v3.5h2.1l-.3-.6h0s-.9-3 2.6-3.8c3.6-.9 11.2-2.2 8.7-10.8z" fill="#12572e"/><path d="M13.306 0a7.74 7.74 0 0 0 0 10.1 7.74 7.74 0 0 0 0-10.1z" fill="#6da819"/><path d="M2.241 6.147c.7.8 1.6 1.6 2.5 2.1 2.1 1.6 3.3 2.9 3.4 6.1-4.2-.4-7.8-3.8-5.9-8.2zm10.3 10.891s2.3-7.4-3.6-10.3c0 .1-2.8 5.7 3.6 10.3z" fill="#007932"/><path d="M7.741 9.738s1.7-5.1-3-7c-1.1 2.7.1 5.7 2.7 6.9.1 0 .2 0 .3.1zm1-9c.8.5 1.4 1.1 1.8 1.9.7 1.4.6 3-.2 4.2-.8-.4-1.4-1.1-1.8-1.9-.6-1.3-.6-2.9.2-4.2z" fill="#6da819"/><path d="M.5 9.838s-.2 2.9 5 4.4c3.9 1.1 7.7 2.6 8.1 7.3l.1 3.4h-2.1l.3-.6h0s.9-3-2.6-3.8c-3.7-.8-11.3-2.1-8.8-10.7z" fill="#12572e"/><path d="M29.948 21.193h0c0-1.1.9-2 2-2h.1c.7 0 1.3.3 1.7.8l-.9.6c-.2-.2-.5-.4-.9-.4-.5 0-1 .5-.9 1h0c0 .5.4 1 .9 1 .4 0 .7-.2.9-.5l.8.6c-.6 1-1.9 1.2-2.8.6-.6-.4-.9-1-.9-1.7h0zm5.5-1.9h1.1v3h1.9v.9h-3v-3.9zm4.9 0h1.1v3.9h-1.1v-3.9zm3.1 0h1l1.6 2.1v-2.1h1.1v3.9h-.9l-1.7-2.1v2.1h-1.1v-3.9zm5.7 0h1.1v3.9h-1.1v-3.9zm3 1.9h0c0-1.1.9-2 2-2h.1c.7 0 1.3.3 1.7.8l-.8.6c-.3-.2-.6-.4-.9-.4-.5 0-1 .5-.9 1h0c0 .5.4 1 .9 1 .4 0 .7-.2.9-.5l.8.7c-.6.9-1.9 1.2-2.9.5-.5-.4-.9-1-.9-1.7h0zm8.5-1.9h1.1v3h1.9v.9h-3v-3.9zm4.7 0h1.1v3h1.9v.9h-3v-3.9zm4.5 1.9h0c0-1.1.9-2 2-2h.1c.7 0 1.3.3 1.7.8l-.8.6c-.3-.2-.6-.4-1-.4-.5 0-1 .5-.9 1h0c0 .5.4 1 .9 1 .4 0 .7-.2.9-.5l.8.6c-.6.9-1.9 1.2-2.9.5-.5-.3-.8-.9-.8-1.6h0z" fill="#506d72"/><path d="M36.526 14.504h-3.4l-.3.6c-.2.6-.6.9-1.2.9h0c-.7 0-1.3-.6-1.3-1.3 0-.1 0-.3.1-.5l2.6-6.6c.3-.7 1-1.2 1.8-1.2h0c.8 0 1.5.5 1.8 1.2l2.6 6.6c.3.7-.1 1.4-.7 1.7-.2.1-.4.1-.5.1h-.1c-.6 0-1-.4-1.2-.9l-.2-.6zm-1.7-5.1l-1.1 3h2.1l-1-3zm7.4 3.5h0c.4 0 .8.2 1.1.6.2.3.6.5 1 .5.6 0 1.1-.3 1.1-.8 0-.6-.7-.8-1.7-1-1.4-.3-3.2-.8-3.2-3 0-1.9 1.4-3 3.6-3 1-.1 2 .3 2.8.9.5.5.5 1.3 0 1.8-.2.3-.6.4-.9.4h0c-.4 0-.8-.2-1.1-.5-.2-.2-.5-.4-.8-.3-.5 0-.9.2-.9.7s.7.7 1.6 1c1.4.4 3.3.8 3.3 3 0 2.1-1.6 3.2-3.8 3.2-1.1.1-2.2-.3-3.1-1.1-.5-.6-.4-1.4.1-1.9.2-.4.5-.5.9-.5zm15.9-5.1v6.9c0 .7-.6 1.3-1.3 1.3h0c-.7 0-1.3-.6-1.3-1.3v-2.4h-2.9v2.3c0 .7-.6 1.3-1.3 1.3h0c-.7 0-1.3-.6-1.3-1.3v-6.8c0-.7.6-1.3 1.3-1.3h0c.7 0 1.3.6 1.3 1.3v2.1h2.9v-2.1c0-.7.6-1.3 1.3-1.3h0c.7-.1 1.3.5 1.3 1.3zm11.3 1h-1.4v5.9c0 .7-.6 1.3-1.3 1.3h0c-.7 0-1.3-.6-1.3-1.3v-5.9h-1.4c-.7 0-1.2-.5-1.2-1.2h0 0c0-.7.5-1.2 1.2-1.2h0 5.5c.7 0 1.2.5 1.2 1.2h0 0c-.1.7-.6 1.2-1.3 1.2h0zm6.4 4.3h-1v1.6c0 .7-.6 1.3-1.3 1.3h0c-.7 0-1.3-.6-1.3-1.3v-6.9c0-.7.6-1.4 1.4-1.4h2.7c1.8-.1 3.4 1.3 3.6 3.1v.3c0 1.1-.6 2.1-1.5 2.7l.9 1.6c.3.6.1 1.4-.5 1.8-.2.1-.4.2-.6.2h0c-.5 0-.9-.3-1.1-.7l-1.3-2.3zm-1-2.2h1.2c.6.1 1.1-.3 1.2-.9s-.4-1.2-.9-1.2h-.2-1.2l-.1 2.1zm13.2 3.9v.1a1.11 1.11 0 0 1-1.1 1.1h-4.3c-.5 0-.9-.4-.9-.9v-7.8c0-.5.4-.9.9-.9h4.2a1.11 1.11 0 0 1 1.1 1.1v.1a1.11 1.11 0 0 1-1.1 1.1h-2.5v1.4h2.1a1.11 1.11 0 0 1 1.1 1.1h0a1.11 1.11 0 0 1-1.1 1.1h-2.1v1.4h2.5c.7 0 1.2.5 1.2 1.1zm8.1 0v.1a1.11 1.11 0 0 1-1.1 1.1h-4.3c-.5 0-.9-.4-.9-.9v-7.8c0-.5.4-.9.9-.9h4.2a1.11 1.11 0 0 1 1.1 1.1v.1a1.11 1.11 0 0 1-1.1 1.1h-2.4v1.4h2.1a1.11 1.11 0 0 1 1.1 1.1h0a1.11 1.11 0 0 1-1.1 1.1h-2.1v1.4h2.5a1.11 1.11 0 0 1 1.1 1.1z" fill="#007c75"/></svg>