<svg xmlns="http://www.w3.org/2000/svg" width="15.552" height="18.582" fill="#46afc5" xmlns:v="https://vecta.io/nano"><path d="M15.473 12.705c-.075-.124-.196-.212-.336-.247s-.289-.011-.412.064l-3.984 2.42c-.377-1.101-1.412-1.84-2.575-1.842H4.9c-.902 0-1.633-.731-1.633-1.633S3.998 9.834 4.9 9.834h1.258c.099 0 .195-.026.28-.077l.675-.4.933 1.552c.075.124.196.213.336.248s.289.012.413-.063l.475-.285.835 1.39c.155.257.489.341.747.186l1.867-1.122c.124-.074.213-.195.248-.335s.013-.288-.062-.412l-.835-1.39.457-.275c.124-.074.213-.195.248-.335s.013-.288-.062-.412L8.77 1.543c-.163-.237-.482-.306-.729-.158l-.467.28-.841-1.4c-.155-.257-.489-.341-.747-.186L4.116 1.2c-.257.155-.341.489-.186.747l.841 1.4-.467.28c-.124.074-.213.195-.248.335s-.013.288.062.412l1.135 1.889-.509.308a4.9 4.9 0 1 0 .156 9.8h.544v1.125H3.811c-.301 0-.544.244-.544.544s.244.544.544.544h8.71c.301 0 .544-.244.544-.544s-.244-.544-.544-.544h-1.633v-1.369l4.4-2.674c.258-.156.34-.49.185-.748zm-3.785-2.1l-.933.561-.555-.923.933-.561zM5.143 1.852l.933-.561.561.933-.933.561zm.188 2.427l2.8-1.682 3.365 5.6-2.8 1.683-.652-1.08.235-.141a1.81 1.81 0 0 0 .618-2.481 1.81 1.81 0 0 0-2.481-.618l-.232.14zm-4.243 7.189c.002-2.103 1.707-3.808 3.81-3.811.099 0 .197-.027.282-.079l1.8-1.088c.22-.132.493-.137.717-.013s.365.358.37.615-.128.495-.347.628L6.005 8.747H4.9c-1.503 0-2.722 1.219-2.722 2.722s1.219 2.722 2.722 2.722h1.09a2.71 2.71 0 0 0-.491 1.089h-.6c-2.103-.003-3.808-1.708-3.81-3.811zm5.444 6.025v-1.669c0-.583.311-1.123.816-1.414s1.128-.292 1.633 0 .817.831.816 1.414v1.669z"/><circle cx="8.165" cy="15.823" r=".544"/></svg>