<svg xmlns="http://www.w3.org/2000/svg" width="17.415" height="16.325" fill="#46afc5" xmlns:v="https://vecta.io/nano"><path d="M14.515 16.325H2.901a1.55 1.55 0 0 1-1.571-1.529V6.752c.013-.293.253-.524.547-.524s.534.231.547.524v8.044a.47.47 0 0 0 .478.465h11.614a.47.47 0 0 0 .478-.465V6.752c.013-.293.253-.524.547-.524s.534.231.546.524v8.044a1.55 1.55 0 0 1-1.571 1.529z"/><path d="M16.871 8.24a.55.55 0 0 1-.385-.156L9.718 1.471c-.563-.544-1.457-.544-2.02 0L.929 8.083c-.215.208-.555.208-.77 0C.057 7.984 0 7.849 0 7.707s.058-.277.159-.376L6.927.718c.993-.958 2.566-.958 3.559 0l6.768 6.613c.102.099.159.234.159.376s-.058.277-.159.376a.55.55 0 0 1-.383.157zm-6.036 8.089H6.581a.53.53 0 0 1-.532-.532v-4.719c.001-.917.745-1.661 1.662-1.662h1.994c.917.001 1.661.745 1.662 1.662v4.719a.53.53 0 0 1-.532.532zm-3.722-1.063h3.191v-4.188a.6.6 0 0 0-.6-.6H7.71a.6.6 0 0 0-.6.6z"/></svg>